<svg xmlns="http://www.w3.org/2000/svg" viewBox="0 0 256 256" width="256" height="256">
  <style>
    .bg { fill: #eff1f5; }
    .fg { fill: #4c4f69; }
    @media (prefers-color-scheme: dark) {
      .bg { fill: #1e2030; }
      .fg { fill: #cad3f5; }
    }
  </style>
  <rect class="bg" x="0" y="0" width="256" height="256" rx="56" ry="56"/>
  <g transform="matrix(0.26051 0 0 -0.26051 26.0108 190.6524)">
    <path class="fg" d="M166 -15Q108 -15 68.5 18.0Q29 51 29 113Q29 160 77.0 199.5Q125 239 228 259Q244 262 264.0 265.5Q284 269 306 273V352Q306 420 289.5 447.5Q273 475 238 475Q214 475 200.0 459.5Q186 444 182 406L180 395Q178 352 159.0 332.0Q140 312 112 312Q86 312 69.0 328.0Q52 344 52 371Q52 412 80.5 440.0Q109 468 156.0 482.0Q203 496 258 496Q347 496 395.5 452.5Q444 409 444 311V90Q444 45 486 45H508L517 37Q498 13 475.5 0.0Q453 -13 412 -13Q368 -13 342.5 7.5Q317 28 309 62Q279 30 247.5 7.5Q216 -15 166 -15ZM227 46Q247 46 264.5 55.5Q282 65 306 85V253Q296 251 286.0 249.0Q276 247 263 245Q217 233 189.5 204.5Q162 176 162 128Q162 87 181.0 66.5Q200 46 227 46ZM668 -15Q632 -15 607.0 10.0Q582 35 582 70Q582 105 607.0 131.0Q632 157 668 157Q704 157 729.0 131.0Q754 105 754 70Q754 35 729.0 10.0Q704 -15 668 -15Z"/>
  </g>
</svg>
